<svg width="38" height="38" viewBox="0 0 38 38" fill="none" xmlns="http://www.w3.org/2000/svg">
<path d="M12.6667 17.4325V17.4167M25.3333 17.4325V17.4167M12.6667 12.6667V11.0833C12.6667 9.40363 13.3339 7.79272 14.5217 6.60499C15.7094 5.41726 17.3203 4.75 19 4.75C20.6797 4.75 22.2906 5.41726 23.4783 6.60499C24.6661 7.79272 25.3333 9.40363 25.3333 11.0833V12.6667M12.6667 12.6667H10.8304C9.18347 12.6667 7.81147 13.9291 7.67469 15.5704L6.61914 28.237C6.46529 30.0832 7.92224 31.6667 9.77487 31.6667H28.2251C30.0778 31.6667 31.5347 30.0832 31.3809 28.237L30.3253 15.5704C30.1885 13.9291 28.8165 12.6667 27.1696 12.6667H25.3333M12.6667 12.6667H25.3333" stroke="white" stroke-width="2" stroke-linecap="round" stroke-linejoin="round"/>
</svg>
