<svg width="239" height="30" viewBox="0 0 239 30" fill="none" xmlns="http://www.w3.org/2000/svg">
<path d="M0.36 8.68C0.36 5.98667 1.10667 3.93333 2.6 2.52C4.12 1.08 6.2 0.359999 8.84 0.359999C11.48 0.359999 13.5333 1.10667 15 2.6C16.4667 4.06667 17.2 6.10667 17.2 8.72V21.56C17.2 23.1867 16.84 24.5867 16.12 25.76C15.4267 26.9333 14.4533 27.84 13.2 28.48C11.9467 29.12 10.48 29.44 8.8 29.44C7.25333 29.44 5.84 29.1467 4.56 28.56C3.28 27.9733 2.25333 27.0933 1.48 25.92C0.733333 24.7467 0.36 23.2933 0.36 21.56V8.68ZM2.12 21.56C2.12 22.92 2.41333 24.0667 3 25C3.58667 25.9067 4.37333 26.6 5.36 27.08C6.37333 27.5333 7.50667 27.76 8.76 27.76C10.0667 27.76 11.2133 27.5467 12.2 27.12C13.2133 26.6667 14 25.9733 14.56 25.04C15.1467 24.1067 15.44 22.9467 15.44 21.56V8.4C15.44 7.04 15.1733 5.89333 14.64 4.96C14.1333 4 13.3733 3.28 12.36 2.8C11.3733 2.29333 10.1733 2.04 8.76 2.04C7.4 2.04 6.21333 2.29333 5.2 2.8C4.21333 3.28 3.45333 4 2.92 4.96C2.38667 5.89333 2.12 7.05333 2.12 8.44V21.56ZM33.3191 3.16C32.5191 2.81333 31.7324 2.57333 30.9591 2.44C30.2124 2.28 29.4657 2.2 28.7191 2.2C27.3324 2.2 26.1457 2.41333 25.1591 2.84C24.1991 3.26667 23.4524 3.94667 22.9191 4.88C22.4124 5.78667 22.1591 6.97333 22.1591 8.44V21.56C22.1591 23.0533 22.4124 24.2667 22.9191 25.2C23.4257 26.1333 24.1591 26.8133 25.1191 27.24C26.0791 27.64 27.2391 27.84 28.5991 27.84C29.1324 27.84 29.7057 27.8 30.3191 27.72C30.9324 27.6133 31.5857 27.4667 32.2791 27.28C32.9991 27.0933 33.7324 26.8667 34.4791 26.6L34.8791 28.08C33.7591 28.5067 32.6524 28.8267 31.5591 29.04C30.4924 29.28 29.4524 29.4 28.4391 29.4C26.7591 29.4 25.3191 29.1333 24.1191 28.6C22.9191 28.04 21.9991 27.1867 21.3591 26.04C20.7191 24.8933 20.3991 23.4267 20.3991 21.64V8.56C20.3991 6.66667 20.7457 5.13333 21.4391 3.96C22.1591 2.78667 23.1057 1.93333 24.2791 1.4C25.4791 0.866665 26.7857 0.599998 28.1991 0.599998C29.2657 0.599998 30.2657 0.706665 31.1991 0.919999C32.1591 1.13333 33.0524 1.46667 33.8791 1.92L33.3191 3.16ZM37.9838 29V0.999998H51.3438V2.64H39.7438V12.52H47.8638L47.3038 14.24H39.7438V27.4H51.2638V29H37.9838ZM74.3769 29H72.4969L69.0169 18.72H59.4169L55.9769 29H54.1369L63.4169 0.999998H65.0169L74.3769 29ZM59.9369 17H68.5369L64.1769 3.84L59.9369 17ZM97.1569 0.999998V29H95.4369L79.1969 4.16V29H77.4369V0.999998H79.1969L95.4369 25.84V0.999998H97.1569ZM125.454 2.48H119.774C118.44 2.48 117.414 2.90666 116.694 3.76C116 4.61333 115.654 5.70667 115.654 7.04C115.654 7.89333 115.827 8.66667 116.174 9.36C116.52 10.0533 116.987 10.6667 117.574 11.2C118.16 11.7333 118.8 12.1467 119.494 12.44C120.214 12.7333 120.934 12.88 121.654 12.88H124.374V8.72H126.054V12.84H130.054L129.294 14.52H126.054V23.52C126.054 24.72 126.307 25.68 126.814 26.4C127.32 27.12 128.094 27.6533 129.134 28L128.734 29.36C127.694 29.04 126.854 28.6133 126.214 28.08C125.574 27.52 125.12 26.8 124.854 25.92C124.4 26.6667 123.814 27.28 123.094 27.76C122.374 28.24 121.614 28.6 120.814 28.84C120.014 29.08 119.28 29.2 118.614 29.2C117.84 29.2267 117.094 29.1733 116.374 29.04C115.654 28.9067 114.974 28.6933 114.334 28.4C113.72 28.08 113.187 27.6667 112.734 27.16C112.28 26.6533 111.92 26.0267 111.654 25.28C111.414 24.5067 111.294 23.6 111.294 22.56V18.8C111.294 17.8933 111.387 17.08 111.574 16.36C111.787 15.6133 112.107 14.9867 112.534 14.48C112.987 13.9467 113.56 13.5467 114.254 13.28C114.947 13.0133 115.76 12.88 116.694 12.88H117.494C116.64 12.3733 115.947 11.7867 115.414 11.12C114.907 10.4267 114.534 9.72 114.294 9C114.054 8.25333 113.92 7.58667 113.894 7C113.867 5.77333 114.08 4.70667 114.534 3.8C114.987 2.86667 115.654 2.14667 116.534 1.64C117.414 1.10666 118.48 0.839998 119.734 0.839998H126.254L125.454 2.48ZM124.374 14.52H117.454C116.867 14.52 116.307 14.5867 115.774 14.72C115.267 14.8533 114.8 15.08 114.374 15.4C113.947 15.72 113.614 16.16 113.374 16.72C113.134 17.28 113.014 18 113.014 18.88V22.48C113.014 23.6533 113.254 24.64 113.734 25.44C114.214 26.2133 114.88 26.7733 115.734 27.12C116.614 27.4667 117.68 27.5867 118.934 27.48C120.08 27.3733 121.054 27.0667 121.854 26.56C122.68 26.0533 123.307 25.4133 123.734 24.64C124.16 23.84 124.374 22.9467 124.374 21.96V14.52ZM144.117 29V0.999998H157.477V2.64H145.877V12.52H153.997L153.437 14.24H145.877V27.4H157.397V29H144.117ZM180.51 29H178.63L175.15 18.72H165.55L162.11 29H160.27L169.55 0.999998H171.15L180.51 29ZM166.07 17H174.67L170.31 3.84L166.07 17ZM193.21 0.999998C194.49 0.999998 195.61 1.17333 196.57 1.52C197.53 1.84 198.33 2.34667 198.97 3.04C199.636 3.73333 200.13 4.64 200.45 5.76C200.796 6.88 200.97 8.21333 200.97 9.76C200.97 11.3067 200.81 12.64 200.49 13.76C200.196 14.8533 199.73 15.76 199.09 16.48C198.476 17.2 197.663 17.7467 196.65 18.12L201.09 29H199.29L195.05 18.56C194.863 18.5867 194.663 18.6133 194.45 18.64C194.236 18.6667 194.01 18.6933 193.77 18.72C193.556 18.72 193.33 18.72 193.09 18.72H185.33V29H183.57V0.999998H193.21ZM193.21 17C194.143 17 194.97 16.8933 195.69 16.68C196.436 16.4667 197.063 16.0933 197.57 15.56C198.103 15.0267 198.503 14.2933 198.77 13.36C199.063 12.4 199.21 11.2 199.21 9.76C199.21 8.42667 199.063 7.30667 198.77 6.4C198.503 5.49333 198.116 4.77333 197.61 4.24C197.103 3.68 196.49 3.28 195.77 3.04C195.05 2.8 194.236 2.68 193.33 2.68H185.33V17H193.21ZM211.751 2.6V29H210.031V2.6H202.951V0.999998H219.031V2.6H211.751ZM237.136 12.52V0.999998H238.896V29H237.136V14.24H223.416V29H221.656V0.999998H223.416V12.52H237.136Z" fill="white"/>
</svg>
